<?xml version="1.0" encoding="UTF-8" standalone="no"?>
<svg
   width="255.16821"
   zoomAndPan="magnify"
   viewBox="0 0 191.37621 90.532157"
   height="120.70951"
   preserveAspectRatio="xMidYMid"
   version="1.0"
   id="svg106"
   sodipodi:docname="logo_duze.svg"
   inkscape:version="1.4 (86a8ad7, 2024-10-11)"
   xmlns:inkscape="http://www.inkscape.org/namespaces/inkscape"
   xmlns:sodipodi="http://sodipodi.sourceforge.net/DTD/sodipodi-0.dtd"
   xmlns="http://www.w3.org/2000/svg"
   xmlns:svg="http://www.w3.org/2000/svg">
  <sodipodi:namedview
     id="namedview106"
     pagecolor="#ffffff"
     bordercolor="#000000"
     borderopacity="0.25"
     inkscape:showpageshadow="2"
     inkscape:pageopacity="0.0"
     inkscape:pagecheckerboard="0"
     inkscape:deskcolor="#d1d1d1"
     inkscape:zoom="2.2825407"
     inkscape:cx="169.98602"
     inkscape:cy="24.31501"
     inkscape:window-width="1920"
     inkscape:window-height="1009"
     inkscape:window-x="1912"
     inkscape:window-y="1016"
     inkscape:window-maximized="1"
     inkscape:current-layer="svg106" />
  <defs
     id="defs1">
    <g
       id="g1" />
  </defs>
  <rect
     x="-1.4210855e-14"
     width="191.37621"
     fill="#13294b"
     y="0"
     height="90.532158"
     fill-opacity="1"
     id="rect2"
     style="stroke-width:0.292505" />
  <g
     fill="#e6d9ca"
     fill-opacity="1"
     id="g4"
     transform="translate(-80.789235,-141.90537)">
    <g
       transform="translate(109.02085,202.12499)"
       id="g3">
      <g
         id="g2">
        <path
           d="m 30.5625,-9.921875 c 0,1.835937 -0.386719,3.382813 -1.15625,4.640625 -0.761719,1.25 -1.746094,2.273438 -2.953125,3.0625 C 25.242188,-1.425781 23.875,-0.859375 22.34375,-0.515625 20.8125,-0.171875 19.257812,0 17.6875,0 H 2.140625 c 1.132813,-0.289062 1.875,-0.90625 2.21875,-1.84375 0.351563,-0.9375 0.53125,-1.898438 0.53125,-2.890625 v -27.15625 c 0,-0.9375 -0.199219,-1.835937 -0.59375,-2.703125 -0.398437,-0.863281 -1.117187,-1.421875 -2.15625,-1.671875 H 12.0625 c -1.085938,0.25 -1.824219,0.824219 -2.21875,1.71875 C 9.445312,-33.660156 9.25,-32.726562 9.25,-31.75 v 12.0625 h 6.296875 c 1.625,0 3.050781,-0.453125 4.28125,-1.359375 1.238281,-0.914063 2.265625,-2.0625 3.078125,-3.4375 0.8125,-1.382813 1.414062,-2.863281 1.8125,-4.4375 0.394531,-1.582031 0.59375,-3.066406 0.59375,-4.453125 0,-2.363281 -0.421875,-4.492188 -1.265625,-6.390625 -0.835937,-1.90625 -1.980469,-3.523437 -3.4375,-4.859375 -1.460937,-1.332031 -3.1875,-2.351562 -5.1875,-3.0625 -1.992187,-0.71875 -4.148437,-1.078125 -6.46875,-1.078125 -3.304687,0 -6.371094,0.507813 -9.203125,1.515625 -2.84375,1.011719 -5.300781,2.453125 -7.375,4.328125 -2.070312,1.875 -3.695312,4.171875 -4.875,6.890625 -1.1875,2.710938 -1.78125,5.765625 -1.78125,9.171875 0,2.46875 0.351562,4.964844 1.046875,7.484375 0.6875,2.511719 1.734375,4.792969 3.140625,6.84375 1.40625,2.042969 3.148438,3.703125 5.21875,4.984375 2.0625,1.28125 4.5,1.921875 7.3125,1.921875 L 3.03125,-5.703125 H 3.25 l -0.59375,0.75 c -2.7070312,0 -5.269531,-0.578125 -7.6875,-1.734375 -2.414062,-1.164062 -4.546875,-2.722656 -6.390625,-4.671875 -1.851563,-1.945313 -3.320313,-4.175781 -4.40625,-6.6875 -1.09375,-2.519531 -1.640625,-5.113281 -1.640625,-7.78125 0,-3.894531 0.695312,-7.3125 2.078125,-10.25 1.386719,-2.9375 3.261719,-5.398437 5.625,-7.390625 2.367187,-2 5.152344,-3.503906 8.359375,-4.515625 C 1.800781,-48.992188 5.226562,-49.5 8.875,-49.5 c 2.414062,0 4.859375,0.34375 7.328125,1.03125 2.46875,0.6875 4.6875,1.726562 6.65625,3.109375 1.976563,1.375 3.582031,3.089844 4.8125,5.140625 1.238281,2.054688 1.859375,4.433594 1.859375,7.140625 0,3.261719 -0.820312,6.039063 -2.453125,8.328125 -1.625,2.292969 -3.945313,4.007812 -6.953125,5.140625 1.382812,0.148437 2.703125,0.445313 3.953125,0.890625 1.257813,0.4375 2.367187,1.054688 3.328125,1.84375 0.96875,0.792969 1.734375,1.757812 2.296875,2.890625 0.570313,1.136719 0.859375,2.492187 0.859375,4.0625 z M 9.25,-0.59375 h 7.40625 c 2.90625,0 5.132812,-0.835938 6.6875,-2.515625 1.550781,-1.675781 2.328125,-3.945313 2.328125,-6.8125 0,-3.101563 -0.890625,-5.40625 -2.671875,-6.90625 -1.773438,-1.507813 -4.15625,-2.265625 -7.15625,-2.265625 H 9.25 Z m 0,0"
           id="path2" />
      </g>
    </g>
  </g>
  <g
     fill="#e6d9ca"
     fill-opacity="1"
     id="g7"
     transform="translate(-80.789235,-141.90537)">
    <g
       transform="translate(139.50534,202.12499)"
       id="g6">
      <g
         id="g5">
        <path
           d="m 16.796875,-0.59375 c 2.320313,0 4.59375,-0.539062 6.8125,-1.625 2.21875,-1.082031 3.894531,-2.6875 5.03125,-4.8125 L 26.9375,0 H 2.59375 C 3.675781,-0.34375 4.390625,-0.96875 4.734375,-1.875 5.078125,-2.789062 5.25,-3.742188 5.25,-4.734375 V -31.75 c 0,-0.976562 -0.171875,-1.898438 -0.515625,-2.765625 -0.34375,-0.863281 -1.058594,-1.445313 -2.140625,-1.75 h 23.828125 l 1.46875,6.96875 c -1.125,-2.175781 -2.640625,-3.78125 -4.546875,-4.8125 -1.898438,-1.039063 -4.054688,-1.5625 -6.46875,-1.5625 H 9.765625 v 16.953125 h 4.59375 c 1.332031,0 2.566406,-0.28125 3.703125,-0.84375 1.132812,-0.570312 1.894531,-1.570312 2.28125,-3 v 8.125 c -0.386719,-1.425781 -1.148438,-2.394531 -2.28125,-2.90625 -1.136719,-0.519531 -2.371094,-0.78125 -3.703125,-0.78125 h -4.59375 v 17.53125 z m 0,0"
           id="path4" />
      </g>
    </g>
  </g>
  <g
     fill="#e6d9ca"
     fill-opacity="1"
     id="g10"
     transform="translate(-80.789235,-141.90537)">
    <g
       transform="translate(168.28802,202.12499)"
       id="g9">
      <g
         id="g8">
        <path
           d="m 9.765625,-4.59375 c 0,0.992188 0.195313,1.917969 0.59375,2.78125 C 10.753906,-0.945312 11.445312,-0.34375 12.4375,0 H 2.65625 C 3.695312,-0.34375 4.390625,-0.96875 4.734375,-1.875 5.078125,-2.789062 5.25,-3.742188 5.25,-4.734375 V -31.75 c 0,-0.976562 -0.171875,-1.898438 -0.515625,-2.765625 -0.34375,-0.863281 -1.039063,-1.445313 -2.078125,-1.75 H 15.25 c 1.769531,0 3.503906,0.199219 5.203125,0.59375 1.707031,0.398437 3.226563,1.027344 4.5625,1.890625 1.332031,0.867188 2.40625,2 3.21875,3.40625 0.8125,1.40625 1.21875,3.121094 1.21875,5.140625 0,2.90625 -0.875,5.277344 -2.625,7.109375 -1.75,1.824219 -3.984375,3.054688 -6.703125,3.6875 l 6.734375,10.890625 c 0.539063,0.78125 1.179687,1.496094 1.921875,2.140625 0.738281,0.648438 1.53125,1.117188 2.375,1.40625 H 24.265625 L 15.46875,-14.28125 H 9.765625 Z m 0,-10.203125 h 5.03125 c 3.113281,0 5.566406,-0.960937 7.359375,-2.890625 1.800781,-1.925781 2.703125,-4.441406 2.703125,-7.546875 0,-3.257813 -0.867187,-5.8125 -2.59375,-7.65625 -1.71875,-1.851563 -4.210937,-2.78125 -7.46875,-2.78125 h -5.03125 z m 0,0"
           id="path7" />
      </g>
    </g>
  </g>
  <g
     fill="#e6d9ca"
     fill-opacity="1"
     id="g13"
     transform="translate(-80.789235,-141.90537)">
    <g
       transform="translate(199.66042,202.12499)"
       id="g12">
      <g
         id="g11">
        <path
           d="m 9.765625,-4.59375 c 0,0.992188 0.195313,1.917969 0.59375,2.78125 C 10.753906,-0.945312 11.445312,-0.34375 12.4375,0 H 2.65625 C 3.695312,-0.34375 4.390625,-0.96875 4.734375,-1.875 5.078125,-2.789062 5.25,-3.742188 5.25,-4.734375 V -31.75 c 0,-0.976562 -0.171875,-1.898438 -0.515625,-2.765625 -0.34375,-0.863281 -1.039063,-1.445313 -2.078125,-1.75 H 15.25 c 1.769531,0 3.503906,0.199219 5.203125,0.59375 1.707031,0.398437 3.226563,1.027344 4.5625,1.890625 1.332031,0.867188 2.40625,2 3.21875,3.40625 0.8125,1.40625 1.21875,3.121094 1.21875,5.140625 0,2.90625 -0.875,5.277344 -2.625,7.109375 -1.75,1.824219 -3.984375,3.054688 -6.703125,3.6875 l 6.734375,10.890625 c 0.539063,0.78125 1.179687,1.496094 1.921875,2.140625 0.738281,0.648438 1.53125,1.117188 2.375,1.40625 H 24.265625 L 15.46875,-14.28125 H 9.765625 Z m 0,-10.203125 h 5.03125 c 3.113281,0 5.566406,-0.960937 7.359375,-2.890625 1.800781,-1.925781 2.703125,-4.441406 2.703125,-7.546875 0,-3.257813 -0.867187,-5.8125 -2.59375,-7.65625 -1.71875,-1.851563 -4.210937,-2.78125 -7.46875,-2.78125 h -5.03125 z m 0,0"
           id="path10" />
      </g>
    </g>
  </g>
  <g
     fill="#e6d9ca"
     fill-opacity="1"
     id="g16"
     transform="translate(-80.789235,-141.90537)">
    <g
       transform="translate(231.03283,202.12499)"
       id="g15">
      <g
         id="g14">
        <path
           d="m 19.984375,-4.59375 c 0,0.992188 0.179687,1.917969 0.546875,2.78125 0.375,0.867188 1.078125,1.46875 2.109375,1.8125 H 12.875 c 1.039062,-0.34375 1.734375,-0.957031 2.078125,-1.84375 0.34375,-0.894531 0.515625,-1.859375 0.515625,-2.890625 V -15.84375 L 6.515625,-32.1875 C 6.117188,-32.976562 5.585938,-33.789062 4.921875,-34.625 4.253906,-35.46875 3.5,-36.015625 2.65625,-36.265625 h 10 c -0.5,0.25 -0.886719,0.601563 -1.15625,1.046875 -0.273438,0.4375 -0.40625,0.929688 -0.40625,1.46875 0,0.648438 0.175781,1.265625 0.53125,1.859375 l 7.84375,14.65625 7.09375,-13.625 c 0.195312,-0.34375 0.359375,-0.695313 0.484375,-1.0625 0.125,-0.375 0.1875,-0.757813 0.1875,-1.15625 0,-0.6875 -0.214844,-1.328125 -0.640625,-1.921875 -0.417969,-0.59375 -0.96875,-1.015625 -1.65625,-1.265625 h 7.46875 c -0.886719,0.304687 -1.789062,0.949219 -2.703125,1.9375 -0.90625,0.980469 -1.558594,1.890625 -1.953125,2.734375 l -7.765625,14.796875 z m 0,0"
           id="path13" />
      </g>
    </g>
  </g>
  <g
     fill="#e6d9ca"
     fill-opacity="1"
     id="g19"
     transform="translate(-80.789235,-141.90537)">
    <g
       transform="translate(114.66338,219.10571)"
       id="g18">
      <g
         id="g17">
        <path
           d="m 4.34375,-3.84375 c 0,0.261719 -0.074219,0.507812 -0.21875,0.734375 -0.136719,0.230469 -0.324219,0.40625 -0.5625,0.53125 -0.324219,0.1875 -0.789062,0.28125 -1.390625,0.28125 -0.167969,0 -0.355469,-0.00781 -0.5625,-0.03125 V -0.875 c 0,0.292969 0.046875,0.484375 0.140625,0.578125 0.09375,0.085937 0.300781,0.132813 0.625,0.140625 V 0 H 0.125 V -0.15625 C 0.425781,-0.175781 0.613281,-0.226562 0.6875,-0.3125 0.757812,-0.40625 0.796875,-0.617188 0.796875,-0.953125 v -3.46875 C 0.796875,-4.710938 0.757812,-4.894531 0.6875,-4.96875 0.613281,-5.050781 0.425781,-5.109375 0.125,-5.140625 v -0.15625 h 2.109375 c 0.382813,0 0.734375,0.054687 1.046875,0.15625 0.320312,0.105469 0.566406,0.246094 0.734375,0.421875 0.21875,0.230469 0.328125,0.523438 0.328125,0.875 z m -0.875,0.046875 c 0,-0.414063 -0.132812,-0.71875 -0.390625,-0.90625 C 2.828125,-4.898438 2.429688,-5 1.890625,-5 c -0.105469,0 -0.179687,0.023438 -0.21875,0.0625 -0.042969,0.03125 -0.0625,0.101562 -0.0625,0.203125 v 2.09375 c 0.1875,0.011719 0.34375,0.015625 0.46875,0.015625 0.925781,0 1.390625,-0.390625 1.390625,-1.171875 z m 0,0"
           id="path16" />
      </g>
    </g>
  </g>
  <g
     fill="#e6d9ca"
     fill-opacity="1"
     id="g22"
     transform="translate(-80.789235,-141.90537)">
    <g
       transform="translate(118.84742,219.10571)"
       id="g21">
      <g
         id="g20">
        <path
           d="M 5.265625,0 H 3.984375 L 2.078125,-2.46875 1.625,-2.453125 V -0.875 c 0,0.292969 0.039062,0.480469 0.125,0.5625 0.09375,0.085938 0.296875,0.136719 0.609375,0.15625 V 0 h -2.21875 v -0.15625 c 0.289063,-0.019531 0.472656,-0.078125 0.546875,-0.171875 0.082031,-0.09375 0.125,-0.300781 0.125,-0.625 v -3.46875 c 0,-0.28125 -0.042969,-0.460937 -0.125,-0.546875 C 0.613281,-5.050781 0.429688,-5.109375 0.140625,-5.140625 v -0.15625 H 2.34375 c 0.375,0 0.710938,0.046875 1.015625,0.140625 0.3125,0.09375 0.546875,0.226562 0.703125,0.390625 0.207031,0.242187 0.3125,0.53125 0.3125,0.875 0,0.398437 -0.136719,0.703125 -0.40625,0.921875 -0.230469,0.1875 -0.578125,0.328125 -1.046875,0.421875 l 1.65625,2.015625 c 0.113281,0.136719 0.21875,0.230469 0.3125,0.28125 0.101563,0.054688 0.226563,0.085938 0.375,0.09375 z M 3.5,-3.90625 C 3.5,-4.28125 3.378906,-4.554688 3.140625,-4.734375 2.910156,-4.910156 2.546875,-5 2.046875,-5 1.878906,-5 1.765625,-4.976562 1.703125,-4.9375 1.648438,-4.894531 1.625,-4.820312 1.625,-4.71875 V -2.75 C 2.019531,-2.757812 2.3125,-2.78125 2.5,-2.8125 2.6875,-2.84375 2.867188,-2.910156 3.046875,-3.015625 3.347656,-3.171875 3.5,-3.46875 3.5,-3.90625 Z m 0,0"
           id="path19" />
      </g>
    </g>
  </g>
  <g
     fill="#e6d9ca"
     fill-opacity="1"
     id="g25"
     transform="translate(-80.789235,-141.90537)">
    <g
       transform="translate(123.91947,219.10571)"
       id="g24">
      <g
         id="g23">
        <path
           d="m 5.640625,0 h -2.03125 v -0.15625 c 0.21875,0 0.367187,-0.019531 0.453125,-0.0625 0.070312,-0.039062 0.109375,-0.109375 0.109375,-0.203125 0,-0.125 -0.054687,-0.300781 -0.15625,-0.53125 L 3.6875,-1.734375 H 1.59375 l -0.375,0.9375 c -0.042969,0.117187 -0.0625,0.21875 -0.0625,0.3125 0,0.21875 0.179688,0.328125 0.546875,0.328125 V 0 H 0.125 V -0.15625 C 0.3125,-0.164062 0.457031,-0.238281 0.5625,-0.375 0.675781,-0.519531 0.859375,-0.882812 1.109375,-1.46875 L 2.78125,-5.390625 H 2.9375 l 1.984375,4.546875 c 0.144531,0.292969 0.253906,0.480469 0.328125,0.5625 0.082031,0.074219 0.210938,0.117188 0.390625,0.125 z m -2.0625,-2.0625 -0.9375,-2.1875 -0.90625,2.1875 z m 0,0"
           id="path22" />
      </g>
    </g>
  </g>
  <g
     fill="#e6d9ca"
     fill-opacity="1"
     id="g28"
     transform="translate(-80.789235,-141.90537)">
    <g
       transform="translate(129.43153,219.10571)"
       id="g27">
      <g
         id="g26">
        <path
           d="m 5.0625,-0.90625 c -0.242188,0.324219 -0.554688,0.574219 -0.9375,0.75 -0.375,0.1757812 -0.792969,0.265625 -1.25,0.265625 -0.792969,0 -1.433594,-0.25 -1.921875,-0.75 -0.492187,-0.5 -0.734375,-1.148437 -0.734375,-1.953125 0,-0.9375 0.3125,-1.664062 0.9375,-2.1875 0.507812,-0.414062 1.085938,-0.625 1.734375,-0.625 0.394531,0 0.789063,0.0625 1.1875,0.1875 0.125,0.054688 0.226563,0.078125 0.3125,0.078125 0.164063,0 0.273437,-0.085937 0.328125,-0.265625 h 0.171875 l 0.0625,1.8125 H 4.78125 C 4.695312,-3.851562 4.617188,-4.050781 4.546875,-4.1875 4.472656,-4.332031 4.375,-4.46875 4.25,-4.59375 c -0.324219,-0.332031 -0.71875,-0.5 -1.1875,-0.5 -0.585938,0 -1.046875,0.21875 -1.390625,0.65625 -0.34375,0.429688 -0.515625,1.007812 -0.515625,1.734375 0,0.960937 0.242188,1.640625 0.734375,2.046875 0.34375,0.28125 0.757813,0.421875 1.25,0.421875 0.625,0 1.21875,-0.269531 1.78125,-0.8125 z m 0,0"
           id="path25" />
      </g>
    </g>
  </g>
  <g
     fill="#e6d9ca"
     fill-opacity="1"
     id="g31"
     transform="translate(-80.789235,-141.90537)">
    <g
       transform="translate(134.50358,219.10571)"
       id="g30">
      <g
         id="g29">
        <path
           d="m 5.5,-2.609375 c 0,0.804687 -0.246094,1.460937 -0.734375,1.96875 -0.492187,0.5 -1.132813,0.75 -1.921875,0.75 -0.355469,0 -0.699219,-0.0742188 -1.03125,-0.21875 -0.335938,-0.144531 -0.621094,-0.34375 -0.859375,-0.59375 -0.210937,-0.226563 -0.375,-0.515625 -0.5,-0.859375 -0.125,-0.34375 -0.1875,-0.703125 -0.1875,-1.078125 0,-0.8125 0.242187,-1.472656 0.734375,-1.984375 0.5,-0.519531 1.128906,-0.78125 1.890625,-0.78125 0.78125,0 1.425781,0.28125 1.9375,0.84375 C 5.273438,-4.070312 5.5,-3.421875 5.5,-2.609375 Z M 4.59375,-2.625 c 0,-0.988281 -0.230469,-1.6875 -0.6875,-2.09375 C 3.613281,-4.988281 3.273438,-5.125 2.890625,-5.125 2.441406,-5.125 2.0625,-4.945312 1.75,-4.59375 1.570312,-4.40625 1.429688,-4.128906 1.328125,-3.765625 1.234375,-3.410156 1.1875,-3.03125 1.1875,-2.625 c 0,0.4375 0.054688,0.84375 0.171875,1.21875 0.125,0.375 0.289063,0.65625 0.5,0.84375 0.289063,0.261719 0.628906,0.390625 1.015625,0.390625 0.425781,0 0.78125,-0.140625 1.0625,-0.421875 C 4.125,-0.78125 4.253906,-0.976562 4.328125,-1.1875 4.503906,-1.644531 4.59375,-2.125 4.59375,-2.625 Z m 0,0"
           id="path28" />
      </g>
    </g>
  </g>
  <g
     fill="#e6d9ca"
     fill-opacity="1"
     id="g34"
     transform="translate(-80.789235,-141.90537)">
    <g
       transform="translate(140.01564,219.10571)"
       id="g33">
      <g
         id="g32">
        <path
           d="m 7.453125,-5.140625 c -0.210937,0.042969 -0.355469,0.09375 -0.4375,0.15625 -0.074219,0.0625 -0.148437,0.199219 -0.21875,0.40625 L 5.15625,0.09375 H 5.046875 L 3.765625,-3.296875 2.53125,0.09375 h -0.125 L 0.859375,-4.203125 C 0.710938,-4.585938 0.585938,-4.832031 0.484375,-4.9375 0.390625,-5.050781 0.242188,-5.117188 0.046875,-5.140625 v -0.15625 H 2 v 0.15625 c -0.199219,0.011719 -0.335938,0.03125 -0.40625,0.0625 -0.074219,0.03125 -0.109375,0.09375 -0.109375,0.1875 0,0.09375 0.023437,0.21875 0.078125,0.375 l 1.15625,3 0.859375,-2.25 L 3.3125,-4.421875 C 3.175781,-4.742188 3.0625,-4.941406 2.96875,-5.015625 2.882812,-5.097656 2.726562,-5.140625 2.5,-5.140625 v -0.15625 h 2.140625 v 0.15625 c -0.40625,0 -0.609375,0.09375 -0.609375,0.28125 0,0.085937 0.035156,0.21875 0.109375,0.40625 l 0.09375,0.234375 1.0625,2.734375 1,-2.71875 c 0.082031,-0.238281 0.125,-0.4375 0.125,-0.59375 0,-0.101563 -0.042969,-0.179687 -0.125,-0.234375 C 6.210938,-5.082031 6.070312,-5.117188 5.875,-5.140625 v -0.15625 h 1.578125 z m 0,0"
           id="path31" />
      </g>
    </g>
  </g>
  <g
     fill="#e6d9ca"
     fill-opacity="1"
     id="g37"
     transform="translate(-80.789235,-141.90537)">
    <g
       transform="translate(147.30372,219.10571)"
       id="g36">
      <g
         id="g35">
        <path
           d="M 5.65625,-5.140625 C 5.394531,-5.117188 5.21875,-5.070312 5.125,-5 4.96875,-4.894531 4.890625,-4.601562 4.890625,-4.125 v 4.21875 h -0.125 L 1.21875,-4.3125 v 3.140625 c 0,0.40625 0.046875,0.679687 0.140625,0.8125 0.101563,0.125 0.304687,0.195313 0.609375,0.203125 V 0 h -1.875 V -0.15625 C 0.425781,-0.175781 0.640625,-0.25 0.734375,-0.375 0.828125,-0.5 0.875,-0.765625 0.875,-1.171875 v -3.53125 C 0.707031,-4.890625 0.578125,-5.007812 0.484375,-5.0625 0.398438,-5.113281 0.269531,-5.140625 0.09375,-5.140625 v -0.15625 h 1.375 l 3.078125,3.875 V -4.125 c 0,-0.488281 -0.078125,-0.785156 -0.234375,-0.890625 -0.117188,-0.0625 -0.292969,-0.101563 -0.53125,-0.125 v -0.15625 h 1.875 z m 0,0"
           id="path34" />
      </g>
    </g>
  </g>
  <g
     fill="#e6d9ca"
     fill-opacity="1"
     id="g40"
     transform="translate(-80.789235,-141.90537)">
    <g
       transform="translate(152.81578,219.10571)"
       id="g39">
      <g
         id="g38">
        <path
           d="m 2.515625,0 h -2.375 V -0.15625 C 0.472656,-0.164062 0.6875,-0.210938 0.78125,-0.296875 0.875,-0.378906 0.921875,-0.570312 0.921875,-0.875 v -3.546875 c 0,-0.289063 -0.046875,-0.476563 -0.140625,-0.5625 -0.085938,-0.082031 -0.296875,-0.132813 -0.640625,-0.15625 v -0.15625 h 2.375 v 0.15625 c -0.335937,0.011719 -0.546875,0.0625 -0.640625,0.15625 -0.09375,0.085937 -0.140625,0.273437 -0.140625,0.5625 V -0.875 c 0,0.292969 0.046875,0.484375 0.140625,0.578125 0.101562,0.085937 0.316406,0.132813 0.640625,0.140625 z m 0,0"
           id="path37" />
      </g>
    </g>
  </g>
  <g
     fill="#e6d9ca"
     fill-opacity="1"
     id="g43"
     transform="translate(-80.789235,-141.90537)">
    <g
       transform="translate(155.2158,219.10571)"
       id="g42">
      <g
         id="g41">
        <path
           d="m 5.640625,0 h -2.03125 v -0.15625 c 0.21875,0 0.367187,-0.019531 0.453125,-0.0625 0.070312,-0.039062 0.109375,-0.109375 0.109375,-0.203125 0,-0.125 -0.054687,-0.300781 -0.15625,-0.53125 L 3.6875,-1.734375 H 1.59375 l -0.375,0.9375 c -0.042969,0.117187 -0.0625,0.21875 -0.0625,0.3125 0,0.21875 0.179688,0.328125 0.546875,0.328125 V 0 H 0.125 V -0.15625 C 0.3125,-0.164062 0.457031,-0.238281 0.5625,-0.375 0.675781,-0.519531 0.859375,-0.882812 1.109375,-1.46875 L 2.78125,-5.390625 H 2.9375 l 1.984375,4.546875 c 0.144531,0.292969 0.253906,0.480469 0.328125,0.5625 0.082031,0.074219 0.210938,0.117188 0.390625,0.125 z m -2.0625,-2.0625 -0.9375,-2.1875 -0.90625,2.1875 z m 0,0"
           id="path40" />
      </g>
    </g>
  </g>
  <g
     fill="#e6d9ca"
     fill-opacity="1"
     id="g46"
     transform="translate(-80.789235,-141.90537)">
    <g
       transform="translate(160.72787,219.10571)"
       id="g45">
      <g
         id="g44" />
    </g>
  </g>
  <g
     fill="#e6d9ca"
     fill-opacity="1"
     id="g49"
     transform="translate(-80.789235,-141.90537)">
    <g
       transform="translate(162.46388,219.10571)"
       id="g48">
      <g
         id="g47">
        <path
           d="m 4.34375,-3.84375 c 0,0.261719 -0.074219,0.507812 -0.21875,0.734375 -0.136719,0.230469 -0.324219,0.40625 -0.5625,0.53125 -0.324219,0.1875 -0.789062,0.28125 -1.390625,0.28125 -0.167969,0 -0.355469,-0.00781 -0.5625,-0.03125 V -0.875 c 0,0.292969 0.046875,0.484375 0.140625,0.578125 0.09375,0.085937 0.300781,0.132813 0.625,0.140625 V 0 H 0.125 V -0.15625 C 0.425781,-0.175781 0.613281,-0.226562 0.6875,-0.3125 0.757812,-0.40625 0.796875,-0.617188 0.796875,-0.953125 v -3.46875 C 0.796875,-4.710938 0.757812,-4.894531 0.6875,-4.96875 0.613281,-5.050781 0.425781,-5.109375 0.125,-5.140625 v -0.15625 h 2.109375 c 0.382813,0 0.734375,0.054687 1.046875,0.15625 0.320312,0.105469 0.566406,0.246094 0.734375,0.421875 0.21875,0.230469 0.328125,0.523438 0.328125,0.875 z m -0.875,0.046875 c 0,-0.414063 -0.132812,-0.71875 -0.390625,-0.90625 C 2.828125,-4.898438 2.429688,-5 1.890625,-5 c -0.105469,0 -0.179687,0.023438 -0.21875,0.0625 -0.042969,0.03125 -0.0625,0.101562 -0.0625,0.203125 v 2.09375 c 0.1875,0.011719 0.34375,0.015625 0.46875,0.015625 0.925781,0 1.390625,-0.390625 1.390625,-1.171875 z m 0,0"
           id="path46" />
      </g>
    </g>
  </g>
  <g
     fill="#e6d9ca"
     fill-opacity="1"
     id="g52"
     transform="translate(-80.789235,-141.90537)">
    <g
       transform="translate(166.64793,219.10571)"
       id="g51">
      <g
         id="g50">
        <path
           d="M 5.265625,0 H 3.984375 L 2.078125,-2.46875 1.625,-2.453125 V -0.875 c 0,0.292969 0.039062,0.480469 0.125,0.5625 0.09375,0.085938 0.296875,0.136719 0.609375,0.15625 V 0 h -2.21875 v -0.15625 c 0.289063,-0.019531 0.472656,-0.078125 0.546875,-0.171875 0.082031,-0.09375 0.125,-0.300781 0.125,-0.625 v -3.46875 c 0,-0.28125 -0.042969,-0.460937 -0.125,-0.546875 C 0.613281,-5.050781 0.429688,-5.109375 0.140625,-5.140625 v -0.15625 H 2.34375 c 0.375,0 0.710938,0.046875 1.015625,0.140625 0.3125,0.09375 0.546875,0.226562 0.703125,0.390625 0.207031,0.242187 0.3125,0.53125 0.3125,0.875 0,0.398437 -0.136719,0.703125 -0.40625,0.921875 -0.230469,0.1875 -0.578125,0.328125 -1.046875,0.421875 l 1.65625,2.015625 c 0.113281,0.136719 0.21875,0.230469 0.3125,0.28125 0.101563,0.054688 0.226563,0.085938 0.375,0.09375 z M 3.5,-3.90625 C 3.5,-4.28125 3.378906,-4.554688 3.140625,-4.734375 2.910156,-4.910156 2.546875,-5 2.046875,-5 1.878906,-5 1.765625,-4.976562 1.703125,-4.9375 1.648438,-4.894531 1.625,-4.820312 1.625,-4.71875 V -2.75 C 2.019531,-2.757812 2.3125,-2.78125 2.5,-2.8125 2.6875,-2.84375 2.867188,-2.910156 3.046875,-3.015625 3.347656,-3.171875 3.5,-3.46875 3.5,-3.90625 Z m 0,0"
           id="path49" />
      </g>
    </g>
  </g>
  <g
     fill="#e6d9ca"
     fill-opacity="1"
     id="g55"
     transform="translate(-80.789235,-141.90537)">
    <g
       transform="translate(171.71998,219.10571)"
       id="g54">
      <g
         id="g53">
        <path
           d="m 5.5,-2.609375 c 0,0.804687 -0.246094,1.460937 -0.734375,1.96875 -0.492187,0.5 -1.132813,0.75 -1.921875,0.75 -0.355469,0 -0.699219,-0.0742188 -1.03125,-0.21875 -0.335938,-0.144531 -0.621094,-0.34375 -0.859375,-0.59375 -0.210937,-0.226563 -0.375,-0.515625 -0.5,-0.859375 -0.125,-0.34375 -0.1875,-0.703125 -0.1875,-1.078125 0,-0.8125 0.242187,-1.472656 0.734375,-1.984375 0.5,-0.519531 1.128906,-0.78125 1.890625,-0.78125 0.78125,0 1.425781,0.28125 1.9375,0.84375 C 5.273438,-4.070312 5.5,-3.421875 5.5,-2.609375 Z M 4.59375,-2.625 c 0,-0.988281 -0.230469,-1.6875 -0.6875,-2.09375 C 3.613281,-4.988281 3.273438,-5.125 2.890625,-5.125 2.441406,-5.125 2.0625,-4.945312 1.75,-4.59375 1.570312,-4.40625 1.429688,-4.128906 1.328125,-3.765625 1.234375,-3.410156 1.1875,-3.03125 1.1875,-2.625 c 0,0.4375 0.054688,0.84375 0.171875,1.21875 0.125,0.375 0.289063,0.65625 0.5,0.84375 0.289063,0.261719 0.628906,0.390625 1.015625,0.390625 0.425781,0 0.78125,-0.140625 1.0625,-0.421875 C 4.125,-0.78125 4.253906,-0.976562 4.328125,-1.1875 4.503906,-1.644531 4.59375,-2.125 4.59375,-2.625 Z m 0,0"
           id="path52" />
      </g>
    </g>
  </g>
  <g
     fill="#e6d9ca"
     fill-opacity="1"
     id="g58"
     transform="translate(-80.789235,-141.90537)">
    <g
       transform="translate(177.23205,219.10571)"
       id="g57">
      <g
         id="g56">
        <path
           d="m 2.953125,-5.140625 c -0.324219,0.023437 -0.527344,0.074219 -0.609375,0.15625 -0.085938,0.085937 -0.125,0.273437 -0.125,0.5625 v 2.953125 c 0,0.5 -0.121094,0.890625 -0.359375,1.171875 -0.230469,0.2734375 -0.558594,0.40625 -0.984375,0.40625 -0.230469,0 -0.421875,-0.0546875 -0.578125,-0.15625 -0.148437,-0.101563 -0.21875,-0.242187 -0.21875,-0.421875 0,-0.101562 0.035156,-0.191406 0.109375,-0.265625 0.082031,-0.082031 0.175781,-0.125 0.28125,-0.125 0.195312,0 0.335938,0.136719 0.421875,0.40625 0.019531,0.105469 0.046875,0.179687 0.078125,0.21875 0.039062,0.03125 0.085938,0.046875 0.140625,0.046875 0.195313,0 0.296875,-0.175781 0.296875,-0.53125 v -3.703125 c 0,-0.289063 -0.042969,-0.476563 -0.125,-0.5625 -0.085938,-0.082031 -0.292969,-0.132813 -0.625,-0.15625 v -0.15625 h 2.296875 z m 0,0"
           id="path55" />
      </g>
    </g>
  </g>
  <g
     fill="#e6d9ca"
     fill-opacity="1"
     id="g61"
     transform="translate(-80.789235,-141.90537)">
    <g
       transform="translate(180.08008,219.10571)"
       id="g60">
      <g
         id="g59">
        <path
           d="M 4.78125,-1.359375 4.421875,0 H 0.09375 V -0.15625 C 0.382812,-0.175781 0.570312,-0.226562 0.65625,-0.3125 0.75,-0.40625 0.796875,-0.59375 0.796875,-0.875 v -3.546875 c 0,-0.28125 -0.042969,-0.460937 -0.125,-0.546875 C 0.585938,-5.0625 0.394531,-5.117188 0.09375,-5.140625 v -0.15625 h 4.25 L 4.375,-4.15625 H 4.171875 C 4.097656,-4.507812 3.988281,-4.734375 3.84375,-4.828125 3.695312,-4.929688 3.398438,-4.984375 2.953125,-4.984375 H 1.875 c -0.105469,0 -0.179688,0.015625 -0.21875,0.046875 C 1.625,-4.90625 1.609375,-4.832031 1.609375,-4.71875 V -2.9375 H 2.84375 c 0.320312,0 0.535156,-0.046875 0.640625,-0.140625 0.101563,-0.09375 0.179687,-0.300781 0.234375,-0.625 h 0.1875 V -1.84375 H 3.71875 C 3.664062,-2.175781 3.585938,-2.382812 3.484375,-2.46875 3.390625,-2.5625 3.175781,-2.609375 2.84375,-2.609375 H 1.609375 v 1.96875 c 0,0.148437 0.019531,0.230469 0.0625,0.25 0.070313,0.0625 0.332031,0.09375 0.78125,0.09375 H 2.65625 c 0.570312,0 0.976562,-0.066406 1.21875,-0.203125 0.25,-0.132812 0.472656,-0.421875 0.671875,-0.859375 z m 0,0"
           id="path58" />
      </g>
    </g>
  </g>
  <g
     fill="#e6d9ca"
     fill-opacity="1"
     id="g64"
     transform="translate(-80.789235,-141.90537)">
    <g
       transform="translate(184.70412,219.10571)"
       id="g63">
      <g
         id="g62">
        <path
           d="m 5.78125,0 h -2.4375 v -0.15625 c 0.0625,0 0.132812,0 0.21875,0 0.226562,-0.007812 0.34375,-0.070312 0.34375,-0.1875 0,-0.09375 -0.101562,-0.265625 -0.296875,-0.515625 -0.199219,-0.257813 -0.449219,-0.539063 -0.75,-0.84375 L 2.015625,-2.53125 1.8125,-2.375 v 1.5 c 0,0.292969 0.039062,0.480469 0.125,0.5625 0.082031,0.085938 0.28125,0.136719 0.59375,0.15625 V 0 H 0.265625 v -0.15625 c 0.320313,-0.019531 0.519531,-0.078125 0.59375,-0.171875 0.082031,-0.09375 0.125,-0.300781 0.125,-0.625 v -3.46875 c 0,-0.28125 -0.042969,-0.460937 -0.125,-0.546875 -0.085937,-0.09375 -0.28125,-0.148438 -0.59375,-0.171875 v -0.15625 h 2.28125 v 0.15625 c -0.324219,0.023437 -0.527344,0.074219 -0.609375,0.15625 -0.085938,0.085937 -0.125,0.273437 -0.125,0.5625 v 1.640625 l 1.40625,-1.296875 c 0.414062,-0.375 0.625,-0.644531 0.625,-0.8125 0,-0.082031 -0.027344,-0.140625 -0.078125,-0.171875 -0.042969,-0.039062 -0.125,-0.066406 -0.25,-0.078125 -0.074219,0 -0.148437,0 -0.21875,0 v -0.15625 H 5.40625 v 0.15625 C 5.125,-5.117188 4.914062,-5.070312 4.78125,-5 4.65625,-4.9375 4.457031,-4.773438 4.1875,-4.515625 l -1.53125,1.5 1.875,2 c 0.363281,0.386719 0.609375,0.625 0.734375,0.71875 0.132813,0.09375 0.304687,0.140625 0.515625,0.140625 z m 0,0"
           id="path61" />
      </g>
    </g>
  </g>
  <g
     fill="#e6d9ca"
     fill-opacity="1"
     id="g67"
     transform="translate(-80.789235,-141.90537)">
    <g
       transform="translate(190.21618,219.10571)"
       id="g66">
      <g
         id="g65">
        <path
           d="M 4.75,-3.9375 H 4.546875 C 4.460938,-4.375 4.34375,-4.648438 4.1875,-4.765625 c -0.15625,-0.125 -0.460938,-0.1875 -0.90625,-0.1875 H 2.84375 V -0.875 c 0,0.292969 0.046875,0.484375 0.140625,0.578125 0.09375,0.085937 0.300781,0.132813 0.625,0.140625 V 0 H 1.28125 v -0.15625 c 0.332031,-0.019531 0.539062,-0.070312 0.625,-0.15625 0.082031,-0.09375 0.125,-0.304688 0.125,-0.640625 v -4 h -0.4375 c -0.449219,0 -0.75,0.0625 -0.90625,0.1875 C 0.539062,-4.648438 0.421875,-4.375 0.328125,-3.9375 h -0.1875 L 0.1875,-5.296875 h 4.515625 z m 0,0"
           id="path64" />
      </g>
    </g>
  </g>
  <g
     fill="#e6d9ca"
     fill-opacity="1"
     id="g70"
     transform="translate(-80.789235,-141.90537)">
    <g
       transform="translate(194.84023,219.10571)"
       id="g69">
      <g
         id="g68">
        <path
           d="m 5.5,-2.609375 c 0,0.804687 -0.246094,1.460937 -0.734375,1.96875 -0.492187,0.5 -1.132813,0.75 -1.921875,0.75 -0.355469,0 -0.699219,-0.0742188 -1.03125,-0.21875 -0.335938,-0.144531 -0.621094,-0.34375 -0.859375,-0.59375 -0.210937,-0.226563 -0.375,-0.515625 -0.5,-0.859375 -0.125,-0.34375 -0.1875,-0.703125 -0.1875,-1.078125 0,-0.8125 0.242187,-1.472656 0.734375,-1.984375 0.5,-0.519531 1.128906,-0.78125 1.890625,-0.78125 0.78125,0 1.425781,0.28125 1.9375,0.84375 C 5.273438,-4.070312 5.5,-3.421875 5.5,-2.609375 Z M 4.59375,-2.625 c 0,-0.988281 -0.230469,-1.6875 -0.6875,-2.09375 C 3.613281,-4.988281 3.273438,-5.125 2.890625,-5.125 2.441406,-5.125 2.0625,-4.945312 1.75,-4.59375 1.570312,-4.40625 1.429688,-4.128906 1.328125,-3.765625 1.234375,-3.410156 1.1875,-3.03125 1.1875,-2.625 c 0,0.4375 0.054688,0.84375 0.171875,1.21875 0.125,0.375 0.289063,0.65625 0.5,0.84375 0.289063,0.261719 0.628906,0.390625 1.015625,0.390625 0.425781,0 0.78125,-0.140625 1.0625,-0.421875 C 4.125,-0.78125 4.253906,-0.976562 4.328125,-1.1875 4.503906,-1.644531 4.59375,-2.125 4.59375,-2.625 Z m 0,0"
           id="path67" />
      </g>
    </g>
  </g>
  <g
     fill="#e6d9ca"
     fill-opacity="1"
     id="g73"
     transform="translate(-80.789235,-141.90537)">
    <g
       transform="translate(200.35229,219.10571)"
       id="g72">
      <g
         id="g71">
        <path
           d="m 7.453125,-5.140625 c -0.210937,0.042969 -0.355469,0.09375 -0.4375,0.15625 -0.074219,0.0625 -0.148437,0.199219 -0.21875,0.40625 L 5.15625,0.09375 H 5.046875 L 3.765625,-3.296875 2.53125,0.09375 h -0.125 L 0.859375,-4.203125 C 0.710938,-4.585938 0.585938,-4.832031 0.484375,-4.9375 0.390625,-5.050781 0.242188,-5.117188 0.046875,-5.140625 v -0.15625 H 2 v 0.15625 c -0.199219,0.011719 -0.335938,0.03125 -0.40625,0.0625 -0.074219,0.03125 -0.109375,0.09375 -0.109375,0.1875 0,0.09375 0.023437,0.21875 0.078125,0.375 l 1.15625,3 0.859375,-2.25 L 3.3125,-4.421875 C 3.175781,-4.742188 3.0625,-4.941406 2.96875,-5.015625 2.882812,-5.097656 2.726562,-5.140625 2.5,-5.140625 v -0.15625 h 2.140625 v 0.15625 c -0.40625,0 -0.609375,0.09375 -0.609375,0.28125 0,0.085937 0.035156,0.21875 0.109375,0.40625 l 0.09375,0.234375 1.0625,2.734375 1,-2.71875 c 0.082031,-0.238281 0.125,-0.4375 0.125,-0.59375 0,-0.101563 -0.042969,-0.179687 -0.125,-0.234375 C 6.210938,-5.082031 6.070312,-5.117188 5.875,-5.140625 v -0.15625 h 1.578125 z m 0,0"
           id="path70" />
      </g>
    </g>
  </g>
  <g
     fill="#e6d9ca"
     fill-opacity="1"
     id="g76"
     transform="translate(-80.789235,-141.90537)">
    <g
       transform="translate(207.64037,219.10571)"
       id="g75">
      <g
         id="g74">
        <path
           d="m 5.640625,0 h -2.03125 v -0.15625 c 0.21875,0 0.367187,-0.019531 0.453125,-0.0625 0.070312,-0.039062 0.109375,-0.109375 0.109375,-0.203125 0,-0.125 -0.054687,-0.300781 -0.15625,-0.53125 L 3.6875,-1.734375 H 1.59375 l -0.375,0.9375 c -0.042969,0.117187 -0.0625,0.21875 -0.0625,0.3125 0,0.21875 0.179688,0.328125 0.546875,0.328125 V 0 H 0.125 V -0.15625 C 0.3125,-0.164062 0.457031,-0.238281 0.5625,-0.375 0.675781,-0.519531 0.859375,-0.882812 1.109375,-1.46875 L 2.78125,-5.390625 H 2.9375 l 1.984375,4.546875 c 0.144531,0.292969 0.253906,0.480469 0.328125,0.5625 0.082031,0.074219 0.210938,0.117188 0.390625,0.125 z m -2.0625,-2.0625 -0.9375,-2.1875 -0.90625,2.1875 z m 0,0"
           id="path73" />
      </g>
    </g>
  </g>
  <g
     fill="#e6d9ca"
     fill-opacity="1"
     id="g79"
     transform="translate(-80.789235,-141.90537)">
    <g
       transform="translate(213.15243,219.10571)"
       id="g78">
      <g
         id="g77">
        <path
           d="M 5.65625,-5.140625 C 5.394531,-5.117188 5.21875,-5.070312 5.125,-5 4.96875,-4.894531 4.890625,-4.601562 4.890625,-4.125 v 4.21875 h -0.125 L 1.21875,-4.3125 v 3.140625 c 0,0.40625 0.046875,0.679687 0.140625,0.8125 0.101563,0.125 0.304687,0.195313 0.609375,0.203125 V 0 h -1.875 V -0.15625 C 0.425781,-0.175781 0.640625,-0.25 0.734375,-0.375 0.828125,-0.5 0.875,-0.765625 0.875,-1.171875 v -3.53125 C 0.707031,-4.890625 0.578125,-5.007812 0.484375,-5.0625 0.398438,-5.113281 0.269531,-5.140625 0.09375,-5.140625 v -0.15625 h 1.375 l 3.078125,3.875 V -4.125 c 0,-0.488281 -0.078125,-0.785156 -0.234375,-0.890625 -0.117188,-0.0625 -0.292969,-0.101563 -0.53125,-0.125 v -0.15625 h 1.875 z m 0,0"
           id="path76" />
      </g>
    </g>
  </g>
  <g
     fill="#e6d9ca"
     fill-opacity="1"
     id="g82"
     transform="translate(-80.789235,-141.90537)">
    <g
       transform="translate(218.66449,219.10571)"
       id="g81">
      <g
         id="g80">
        <path
           d="m 2.515625,0 h -2.375 V -0.15625 C 0.472656,-0.164062 0.6875,-0.210938 0.78125,-0.296875 0.875,-0.378906 0.921875,-0.570312 0.921875,-0.875 v -3.546875 c 0,-0.289063 -0.046875,-0.476563 -0.140625,-0.5625 -0.085938,-0.082031 -0.296875,-0.132813 -0.640625,-0.15625 v -0.15625 h 2.375 v 0.15625 c -0.335937,0.011719 -0.546875,0.0625 -0.640625,0.15625 -0.09375,0.085937 -0.140625,0.273437 -0.140625,0.5625 V -0.875 c 0,0.292969 0.046875,0.484375 0.140625,0.578125 0.101562,0.085937 0.316406,0.132813 0.640625,0.140625 z m 0,0"
           id="path79" />
      </g>
    </g>
  </g>
  <g
     fill="#e6d9ca"
     fill-opacity="1"
     id="g85"
     transform="translate(-80.789235,-141.90537)">
    <g
       transform="translate(221.06452,219.10571)"
       id="g84">
      <g
         id="g83">
        <path
           d="m 5.640625,0 h -2.03125 v -0.15625 c 0.21875,0 0.367187,-0.019531 0.453125,-0.0625 0.070312,-0.039062 0.109375,-0.109375 0.109375,-0.203125 0,-0.125 -0.054687,-0.300781 -0.15625,-0.53125 L 3.6875,-1.734375 H 1.59375 l -0.375,0.9375 c -0.042969,0.117187 -0.0625,0.21875 -0.0625,0.3125 0,0.21875 0.179688,0.328125 0.546875,0.328125 V 0 H 0.125 V -0.15625 C 0.3125,-0.164062 0.457031,-0.238281 0.5625,-0.375 0.675781,-0.519531 0.859375,-0.882812 1.109375,-1.46875 L 2.78125,-5.390625 H 2.9375 l 1.984375,4.546875 c 0.144531,0.292969 0.253906,0.480469 0.328125,0.5625 0.082031,0.074219 0.210938,0.117188 0.390625,0.125 z m -2.0625,-2.0625 -0.9375,-2.1875 -0.90625,2.1875 z m 0,0"
           id="path82" />
      </g>
    </g>
  </g>
  <g
     fill="#e6d9ca"
     fill-opacity="1"
     id="g88"
     transform="translate(-80.789235,-141.90537)">
    <g
       transform="translate(226.57658,219.10571)"
       id="g87">
      <g
         id="g86" />
    </g>
  </g>
  <g
     fill="#e6d9ca"
     fill-opacity="1"
     id="g91"
     transform="translate(-80.789235,-141.90537)">
    <g
       transform="translate(228.3126,219.10571)"
       id="g90">
      <g
         id="g89">
        <path
           d="m 7.453125,-5.140625 c -0.210937,0.042969 -0.355469,0.09375 -0.4375,0.15625 -0.074219,0.0625 -0.148437,0.199219 -0.21875,0.40625 L 5.15625,0.09375 H 5.046875 L 3.765625,-3.296875 2.53125,0.09375 h -0.125 L 0.859375,-4.203125 C 0.710938,-4.585938 0.585938,-4.832031 0.484375,-4.9375 0.390625,-5.050781 0.242188,-5.117188 0.046875,-5.140625 v -0.15625 H 2 v 0.15625 c -0.199219,0.011719 -0.335938,0.03125 -0.40625,0.0625 -0.074219,0.03125 -0.109375,0.09375 -0.109375,0.1875 0,0.09375 0.023437,0.21875 0.078125,0.375 l 1.15625,3 0.859375,-2.25 L 3.3125,-4.421875 C 3.175781,-4.742188 3.0625,-4.941406 2.96875,-5.015625 2.882812,-5.097656 2.726562,-5.140625 2.5,-5.140625 v -0.15625 h 2.140625 v 0.15625 c -0.40625,0 -0.609375,0.09375 -0.609375,0.28125 0,0.085937 0.035156,0.21875 0.109375,0.40625 l 0.09375,0.234375 1.0625,2.734375 1,-2.71875 c 0.082031,-0.238281 0.125,-0.4375 0.125,-0.59375 0,-0.101563 -0.042969,-0.179687 -0.125,-0.234375 C 6.210938,-5.082031 6.070312,-5.117188 5.875,-5.140625 v -0.15625 h 1.578125 z m 0,0"
           id="path88" />
      </g>
    </g>
  </g>
  <g
     fill="#e6d9ca"
     fill-opacity="1"
     id="g94"
     transform="translate(-80.789235,-141.90537)">
    <g
       transform="translate(235.60068,219.10571)"
       id="g93">
      <g
         id="g92">
        <path
           d="M 5.65625,-5.140625 C 5.394531,-5.117188 5.21875,-5.070312 5.125,-5 4.96875,-4.894531 4.890625,-4.601562 4.890625,-4.125 v 4.21875 h -0.125 L 1.21875,-4.3125 v 3.140625 c 0,0.40625 0.046875,0.679687 0.140625,0.8125 0.101563,0.125 0.304687,0.195313 0.609375,0.203125 V 0 h -1.875 V -0.15625 C 0.425781,-0.175781 0.640625,-0.25 0.734375,-0.375 0.828125,-0.5 0.875,-0.765625 0.875,-1.171875 v -3.53125 C 0.707031,-4.890625 0.578125,-5.007812 0.484375,-5.0625 0.398438,-5.113281 0.269531,-5.140625 0.09375,-5.140625 v -0.15625 h 1.375 l 3.078125,3.875 V -4.125 c 0,-0.488281 -0.078125,-0.785156 -0.234375,-0.890625 -0.117188,-0.0625 -0.292969,-0.101563 -0.53125,-0.125 v -0.15625 h 1.875 z m 0,0"
           id="path91" />
      </g>
    </g>
  </g>
  <g
     fill="#e6d9ca"
     fill-opacity="1"
     id="g97"
     transform="translate(-80.789235,-141.90537)">
    <g
       transform="translate(241.11274,219.10571)"
       id="g96">
      <g
         id="g95">
        <path
           d="M 4.78125,-1.359375 4.421875,0 C 4.054688,0 3.800781,0.128906 3.65625,0.390625 3.53125,0.597656 3.46875,0.820312 3.46875,1.0625 3.46875,1.207031 3.5,1.320312 3.5625,1.40625 3.625,1.5 3.710938,1.546875 3.828125,1.546875 c 0.15625,0 0.300781,-0.117187 0.4375,-0.34375 L 4.421875,1.3125 C 4.222656,1.738281 3.945312,1.953125 3.59375,1.953125 3.425781,1.953125 3.28125,1.882812 3.15625,1.75 3.03125,1.625 2.96875,1.460938 2.96875,1.265625 2.96875,0.960938 3.066406,0.6875 3.265625,0.4375 3.378906,0.28125 3.523438,0.132812 3.703125,0 H 0.09375 V -0.15625 C 0.382812,-0.175781 0.570312,-0.226562 0.65625,-0.3125 0.75,-0.40625 0.796875,-0.59375 0.796875,-0.875 v -3.546875 c 0,-0.28125 -0.042969,-0.460937 -0.125,-0.546875 C 0.585938,-5.0625 0.394531,-5.117188 0.09375,-5.140625 v -0.15625 h 4.25 L 4.375,-4.15625 H 4.171875 C 4.097656,-4.507812 3.988281,-4.734375 3.84375,-4.828125 3.695312,-4.929688 3.398438,-4.984375 2.953125,-4.984375 H 1.875 c -0.105469,0 -0.179688,0.015625 -0.21875,0.046875 C 1.625,-4.90625 1.609375,-4.832031 1.609375,-4.71875 V -2.9375 H 2.84375 c 0.320312,0 0.535156,-0.046875 0.640625,-0.140625 0.101563,-0.09375 0.179687,-0.300781 0.234375,-0.625 h 0.1875 V -1.84375 H 3.71875 C 3.664062,-2.175781 3.585938,-2.382812 3.484375,-2.46875 3.390625,-2.5625 3.175781,-2.609375 2.84375,-2.609375 H 1.609375 v 1.96875 c 0,0.148437 0.019531,0.230469 0.0625,0.25 0.070313,0.0625 0.332031,0.09375 0.78125,0.09375 H 2.65625 c 0.570312,0 0.976562,-0.066406 1.21875,-0.203125 0.25,-0.132812 0.472656,-0.421875 0.671875,-0.859375 z m 0,0"
           id="path94" />
      </g>
    </g>
  </g>
  <g
     fill="#e6d9ca"
     fill-opacity="1"
     id="g100"
     transform="translate(-80.789235,-141.90537)">
    <g
       transform="translate(245.73679,219.10571)"
       id="g99">
      <g
         id="g98">
        <path
           d="M 4.75,-3.9375 H 4.546875 C 4.460938,-4.375 4.34375,-4.648438 4.1875,-4.765625 c -0.15625,-0.125 -0.460938,-0.1875 -0.90625,-0.1875 H 2.84375 V -0.875 c 0,0.292969 0.046875,0.484375 0.140625,0.578125 0.09375,0.085937 0.300781,0.132813 0.625,0.140625 V 0 H 1.28125 v -0.15625 c 0.332031,-0.019531 0.539062,-0.070312 0.625,-0.15625 0.082031,-0.09375 0.125,-0.304688 0.125,-0.640625 v -4 h -0.4375 c -0.449219,0 -0.75,0.0625 -0.90625,0.1875 C 0.539062,-4.648438 0.421875,-4.375 0.328125,-3.9375 h -0.1875 L 0.1875,-5.296875 h 4.515625 z m 0,0"
           id="path97" />
      </g>
    </g>
  </g>
  <g
     fill="#e6d9ca"
     fill-opacity="1"
     id="g103"
     transform="translate(-80.789235,-141.90537)">
    <g
       transform="translate(250.36084,219.10571)"
       id="g102">
      <g
         id="g101">
        <path
           d="M 5.265625,0 H 3.984375 L 2.078125,-2.46875 1.625,-2.453125 V -0.875 c 0,0.292969 0.039062,0.480469 0.125,0.5625 0.09375,0.085938 0.296875,0.136719 0.609375,0.15625 V 0 h -2.21875 v -0.15625 c 0.289063,-0.019531 0.472656,-0.078125 0.546875,-0.171875 0.082031,-0.09375 0.125,-0.300781 0.125,-0.625 v -3.46875 c 0,-0.28125 -0.042969,-0.460937 -0.125,-0.546875 C 0.613281,-5.050781 0.429688,-5.109375 0.140625,-5.140625 v -0.15625 H 2.34375 c 0.375,0 0.710938,0.046875 1.015625,0.140625 0.3125,0.09375 0.546875,0.226562 0.703125,0.390625 0.207031,0.242187 0.3125,0.53125 0.3125,0.875 0,0.398437 -0.136719,0.703125 -0.40625,0.921875 -0.230469,0.1875 -0.578125,0.328125 -1.046875,0.421875 l 1.65625,2.015625 c 0.113281,0.136719 0.21875,0.230469 0.3125,0.28125 0.101563,0.054688 0.226563,0.085938 0.375,0.09375 z M 3.5,-3.90625 C 3.5,-4.28125 3.378906,-4.554688 3.140625,-4.734375 2.910156,-4.910156 2.546875,-5 2.046875,-5 1.878906,-5 1.765625,-4.976562 1.703125,-4.9375 1.648438,-4.894531 1.625,-4.820312 1.625,-4.71875 V -2.75 C 2.019531,-2.757812 2.3125,-2.78125 2.5,-2.8125 2.6875,-2.84375 2.867188,-2.910156 3.046875,-3.015625 3.347656,-3.171875 3.5,-3.46875 3.5,-3.90625 Z m 0,0"
           id="path100" />
      </g>
    </g>
  </g>
  <g
     fill="#e6d9ca"
     fill-opacity="1"
     id="g106"
     transform="translate(-80.789235,-141.90537)">
    <g
       transform="translate(255.43289,219.10571)"
       id="g105">
      <g
         id="g104">
        <path
           d="M 4.78125,-1.40625 4.578125,0 h -4.5 V -0.125 L 3.5625,-4.984375 H 1.796875 c -0.53125,0 -0.886719,0.117187 -1.0625,0.34375 -0.125,0.148437 -0.21875,0.386719 -0.28125,0.71875 H 0.25 l 0.15625,-1.375 h 4.203125 v 0.125 l -3.453125,4.875 h 2.0625 c 0.46875,0 0.800781,-0.101563 1,-0.3125 0.132812,-0.15625 0.257812,-0.421875 0.375,-0.796875 z m 0,0"
           id="path103" />
      </g>
    </g>
  </g>
</svg>
